# This file uses centimeters as units for non-parametric coordinates.

v -49.983783 0.122379 25.189574
v -32.755428 0.122379 25.189574
v -49.983783 1.122379 25.189574
v -32.755428 1.122379 25.189574
v -49.983783 1.022389 8.285964
v -49.983783 1.122379 8.385954
v -32.855419 1.022389 8.285964
v -32.755428 1.122379 8.385954
v -49.983783 0.122379 8.385954
v -49.983783 0.222369 8.285964
v -32.855419 0.222369 8.285964
v -32.755428 0.122379 8.385954
vt 0.256822 0.011133
vt 0.258073 0.012384
vt 0.258073 0.222629
vt 0.245561 0.222629
vt 0.245561 0.012384
vt 0.246812 0.011133
vt 0.017489 0.012384
vt 0.030001 0.222629
vt 0.030001 0.012384
vt 0.017489 0.222629
vt 0.071410 0.922468
vt 0.820009 0.939284
vt 0.071403 0.916430
vt 0.814457 0.916375
vt 0.810457 0.978972
vt 0.071407 0.972373
vt 0.825962 0.935222
vt 0.825262 0.976827
vt 0.071410 0.985297
vt 0.071413 0.979253
vt 0.810171 0.972157
vt 0.810112 0.922391
vt 0.810128 0.939064
vt 0.071409 0.939137
vt 0.819448 0.972568
vt 0.814800 0.984993
vn -1.000000 0.000000 0.000000
vn -1.000000 0.000000 0.000000
vn -1.000000 0.000000 0.000000
vn -1.000000 0.000000 0.000000
vn -1.000000 0.000000 0.000000
vn -1.000000 0.000000 0.000000
vn 0.000000 0.707106 -0.707107
vn 0.000000 0.707106 -0.707107
vn 0.000000 0.707106 -0.707107
vn 0.000000 0.707106 -0.707107
vn 0.707104 0.000000 -0.707110
vn 0.707104 0.000000 -0.707110
vn 0.707104 0.000000 -0.707110
vn 0.707104 0.000000 -0.707110
vn 0.000000 -0.707106 -0.707107
vn 0.000000 -0.707106 -0.707107
vn 0.000000 -0.707106 -0.707107
vn 0.000000 -0.707106 -0.707107
vn 0.000000 1.000000 0.000000
vn 0.000000 1.000000 0.000000
vn 0.000000 1.000000 0.000000
vn 0.000000 1.000000 0.000000
vn 0.000000 0.000000 -1.000000
vn 0.000000 0.000000 -1.000000
vn 0.000000 0.000000 -1.000000
vn 0.000000 0.000000 -1.000000
vn 1.000000 0.000000 0.000000
vn 1.000000 0.000000 0.000000
vn 1.000000 0.000000 0.000000
vn 1.000000 0.000000 0.000000
f 10/1/1 9/2/2 1/3/3 3/4/4 6/5/5 5/6/6
f 5/11/7 6/13/8 8/14/9 7/22/10
f 7/12/11 8/17/12 12/18/13 11/25/14
f 9/19/15 10/20/16 11/15/17 12/26/18
f 3/4/19 4/8/20 8/9/21 6/5/22
f 5/24/23 7/23/24 11/21/25 10/16/26
f 2/10/27 12/7/28 8/9/29 4/8/30
v 3.413133 1.122379 25.189574
v -31.971390 1.122379 25.189574
v -31.971390 0.122379 25.189574
v 3.413133 0.222369 8.285964
v 3.413133 0.122379 8.385954
v -31.871399 0.222369 8.285964
v -31.971390 0.122379 8.385954
v 3.413133 1.122379 8.385954
v 3.413133 1.022389 8.285964
v -31.871399 1.022389 8.285964
v -31.971390 1.122379 8.385954
vt 0.972648 0.867564
vt 0.042004 0.867767
vt 0.053485 0.838916
vt 0.978082 0.838945
vt 0.972648 0.878974
vt 0.045408 0.878982
vt 0.038406 0.844857
vt 0.978083 0.835280
vt 0.761427 0.232769
vt 0.289911 0.232769
vt 0.289911 0.008852
vt 0.761427 0.008853
vt 0.276585 0.008852
vt 0.276585 0.232769
vt 0.972647 0.847605
vt 0.042005 0.847402
vt 0.048257 0.847523
vt 0.048059 0.875361
vt 0.048361 0.867668
vt 0.050836 0.835269
vt 0.972646 0.875330
vt 0.038404 0.870312
vn -0.000000 -0.707106 -0.707107
vn -0.000000 -0.707106 -0.707107
vn -0.000000 -0.707106 -0.707107
vn -0.000000 -0.707106 -0.707107
vn -0.707104 0.000000 -0.707110
vn -0.707104 0.000000 -0.707110
vn -0.707104 0.000000 -0.707110
vn -0.707104 0.000000 -0.707110
vn 0.000000 0.707106 -0.707107
vn 0.000000 0.707106 -0.707107
vn 0.000000 0.707106 -0.707107
vn 0.000000 0.707106 -0.707107
vn -0.000000 0.000000 -1.000000
vn -0.000000 0.000000 -1.000000
vn -0.000000 0.000000 -1.000000
vn -0.000000 0.000000 -1.000000
vn 0.000000 1.000000 0.000000
vn 0.000000 1.000000 0.000000
vn 0.000000 1.000000 0.000000
vn 0.000000 1.000000 0.000000
vn -1.000000 0.000000 0.000000
vn -1.000000 0.000000 0.000000
vn -1.000000 0.000000 0.000000
vn -1.000000 0.000000 0.000000
f 16/47/31 17/31/32 19/32/33 18/44/34
f 18/28/35 19/48/36 23/33/37 22/42/38
f 20/34/39 21/30/40 22/29/41 23/46/42
f 16/27/43 18/45/44 22/43/45 21/41/46
f 20/35/47 23/36/48 14/37/49 13/38/50
f 14/37/51 23/36/52 19/40/53 15/39/54
v 37.836288 0.122379 25.189574
v 3.413133 1.122379 25.189574
v 37.836288 1.122379 25.189574
v 3.413133 1.022389 8.285964
v 3.413133 1.122379 8.385954
v 37.736297 1.022389 8.285964
v 37.836288 1.122379 8.385954
v 3.413133 0.122379 8.385954
v 3.413133 0.222369 8.285964
v 37.736297 0.222369 8.285964
v 37.836288 0.122379 8.385954
vt 0.015727 0.247476
vt 0.481190 0.247476
vt 0.481190 0.474691
vt 0.038224 0.734442
vt 0.038225 0.746153
vt 0.972075 0.746288
vt 0.015727 0.474691
vt 0.965126 0.734394
vt 0.962579 0.781422
vt 0.038226 0.781502
vt 0.975846 0.743733
vt 0.975319 0.770029
vt 0.038224 0.785274
vt 0.494712 0.247476
vt 0.494712 0.474691
vt 0.038225 0.767152
vt 0.971654 0.767326
vt 0.962414 0.767094
vt 0.962420 0.738117
vt 0.962424 0.746097
vt 0.965298 0.785178
vt 0.038225 0.738186
vn 0.000000 0.707106 -0.707107
vn 0.000000 0.707106 -0.707107
vn 0.000000 0.707106 -0.707107
vn 0.000000 0.707106 -0.707107
vn 0.707104 0.000000 -0.707110
vn 0.707104 0.000000 -0.707110
vn 0.707104 0.000000 -0.707110
vn 0.707104 0.000000 -0.707110
vn 0.000000 -0.707106 -0.707107
vn 0.000000 -0.707106 -0.707107
vn 0.000000 -0.707106 -0.707107
vn 0.000000 -0.707106 -0.707107
vn 0.000000 1.000000 0.000000
vn 0.000000 1.000000 0.000000
vn 0.000000 1.000000 0.000000
vn 0.000000 1.000000 0.000000
vn 0.000000 0.000000 -1.000000
vn 0.000000 0.000000 -1.000000
vn 0.000000 0.000000 -1.000000
vn 0.000000 0.000000 -1.000000
vn 1.000000 0.000000 0.000000
vn 1.000000 0.000000 0.000000
vn 1.000000 0.000000 0.000000
vn 1.000000 0.000000 0.000000
f 27/70/55 28/52/56 30/56/57 29/67/58
f 29/54/59 30/59/60 34/60/61 33/65/62
f 31/61/63 32/58/64 33/57/65 34/69/66
f 25/49/67 26/50/68 30/51/69 28/55/70
f 27/53/71 29/68/72 33/66/73 32/64/74
f 24/62/75 34/63/76 30/51/77 26/50/78
v 37.836288 0.122379 25.189574
v 39.779658 0.122379 25.189574
v 37.836288 1.122379 25.189574
v 39.779658 1.122379 25.189574
v 37.836288 1.022389 9.219319
v 37.836288 1.122379 9.319309
v 39.679668 1.022389 9.219319
v 39.779658 1.122379 9.319309
v 37.836288 0.122379 9.319309
v 37.836288 0.222369 9.219319
v 39.679668 0.222369 9.219319
v 39.779658 0.122379 9.319309
vt 0.530238 0.491694
vt 0.528707 0.490163
vt 0.528707 0.247141
vt 0.544020 0.247141
vt 0.544020 0.490163
vt 0.542489 0.491694
vt 0.589092 0.247141
vt 0.573779 0.247141
vt 0.573779 0.490163
vt 0.039765 0.704994
vt 0.040190 0.631049
vt 0.158486 0.637992
vt 0.040233 0.622707
vt 0.154880 0.623242
vt 0.148660 0.695560
vt 0.040199 0.686723
vt 0.589092 0.490163
vt 0.166699 0.691177
vt 0.039680 0.696634
vt 0.148839 0.686743
vt 0.148848 0.639594
vt 0.040208 0.639573
vt 0.154655 0.703862
vt 0.158362 0.685249
vt 0.166854 0.632108
vt 0.148943 0.631557
vn -1.000000 0.000000 0.000000
vn -1.000000 0.000000 0.000000
vn -1.000000 0.000000 0.000000
vn -1.000000 0.000000 0.000000
vn -1.000000 0.000000 0.000000
vn -1.000000 0.000000 0.000000
vn 0.000000 0.707106 -0.707107
vn 0.000000 0.707106 -0.707107
vn 0.000000 0.707106 -0.707107
vn 0.000000 0.707106 -0.707107
vn 0.707104 0.000000 -0.707110
vn 0.707104 0.000000 -0.707110
vn 0.707104 0.000000 -0.707110
vn 0.707104 0.000000 -0.707110
vn 0.000000 -0.707106 -0.707107
vn 0.000000 -0.707106 -0.707107
vn 0.000000 -0.707106 -0.707107
vn 0.000000 -0.707106 -0.707107
vn 0.000000 1.000000 0.000000
vn 0.000000 1.000000 0.000000
vn 0.000000 1.000000 0.000000
vn 0.000000 1.000000 0.000000
vn 0.000000 0.000000 -1.000000
vn 0.000000 0.000000 -1.000000
vn 0.000000 0.000000 -1.000000
vn 0.000000 0.000000 -1.000000
vn 1.000000 0.000000 0.000000
vn 1.000000 0.000000 0.000000
vn 1.000000 0.000000 0.000000
vn 1.000000 0.000000 0.000000
f 44/71/79 43/72/80 35/73/81 37/74/82 40/75/83 39/76/84
f 39/81/85 40/83/86 42/84/87 41/96/88
f 41/82/89 42/95/90 46/88/91 45/94/92
f 43/80/93 44/89/94 45/85/95 46/93/96
f 37/74/97 38/78/98 42/79/99 40/75/100
f 39/92/101 41/91/102 45/90/103 44/86/104
f 36/77/105 46/87/106 42/79/107 38/78/108
v 40.897563 0.122379 25.189574
v 39.779658 1.122379 25.189574
v 40.897563 1.122379 25.189574
v 39.779658 1.022389 10.283016
v 39.779658 1.122379 10.383006
v 40.797572 1.022389 10.283016
v 40.897563 1.122379 10.383006
v 39.779658 0.122379 10.383006
v 39.779658 0.222369 10.283016
v 40.797572 0.222369 10.283016
v 40.897563 0.122379 10.383006
vt 0.625987 0.248203
vt 0.644781 0.248203
vt 0.644781 0.497127
vt 0.625987 0.497127
vt 0.212710 0.623609
vt 0.288967 0.623637
vt 0.213244 0.604660
vt 0.284106 0.606328
vt 0.277669 0.684335
vt 0.213053 0.685656
vt 0.661593 0.497127
vt 0.298049 0.680719
vt 0.213239 0.694631
vt 0.661593 0.248203
vt 0.212728 0.674295
vt 0.289065 0.674393
vt 0.277218 0.674273
vt 0.277556 0.615142
vt 0.277200 0.623587
vt 0.284200 0.693182
vt 0.213033 0.613623
vt 0.297927 0.617275
vn 0.000000 0.707107 -0.707107
vn 0.000000 0.707107 -0.707107
vn 0.000000 0.707107 -0.707107
vn 0.000000 0.707106 -0.707107
vn 0.707104 0.000000 -0.707110
vn 0.707104 0.000000 -0.707110
vn 0.707104 0.000000 -0.707110
vn 0.707104 0.000000 -0.707110
vn 0.000000 -0.707107 -0.707107
vn 0.000000 -0.707107 -0.707107
vn 0.000000 -0.707106 -0.707107
vn 0.000000 -0.707107 -0.707107
vn 0.000000 1.000000 0.000000
vn 0.000000 1.000000 0.000000
vn 0.000000 1.000000 0.000000
vn 0.000000 1.000000 0.000000
vn 0.000000 0.000000 -1.000000
vn 0.000000 0.000000 -1.000000
vn 0.000000 0.000000 -1.000000
vn 0.000000 0.000000 -1.000000
vn 1.000000 0.000000 0.000000
vn 1.000000 0.000000 0.000000
vn 1.000000 0.000000 0.000000
vn 1.000000 0.000000 0.000000
f 50/117/109 51/103/110 53/104/111 52/114/112
f 52/102/113 53/118/114 57/108/115 56/112/116
f 54/109/117 55/106/118 56/105/119 57/116/120
f 48/97/121 49/98/122 53/99/123 51/100/124
f 50/101/125 52/115/126 56/113/127 55/111/128
f 47/110/129 57/107/130 53/99/131 49/98/132
v 40.897563 1.122379 25.189574
v 43.767228 1.122379 25.189574
v 40.897563 1.022389 11.158897
v 40.897563 1.122379 11.258887
v 43.771386 1.022389 11.158897
v 43.767228 1.122379 11.258887
v 40.897563 0.122379 11.258887
v 40.897563 0.222369 11.158897
v 43.771386 0.222369 11.158897
v 43.767228 0.122379 11.258887
vt 0.704241 0.258599
vt 0.752402 0.258599
vt 0.752402 0.492395
vt 0.704241 0.492395
vt 0.476242 0.565926
vt 0.671630 0.545627
vt 0.671347 0.536012
vt 0.476242 0.536012
vt 0.671630 0.620318
vt 0.476241 0.627673
vt 0.476242 0.637287
vt 0.671347 0.637287
vt 0.476241 0.620318
vt 0.671630 0.627673
vt 0.671630 0.565926
vt 0.476242 0.545627
vn 0.000000 0.707106 -0.707107
vn 0.000000 0.707106 -0.707107
vn 0.000000 0.707106 -0.707107
vn 0.000000 0.707107 -0.707107
vn 0.000000 -0.707106 -0.707107
vn 0.000000 -0.707106 -0.707107
vn 0.000000 -0.707107 -0.707107
vn 0.000000 -0.707106 -0.707107
vn 0.000000 1.000000 0.000000
vn 0.000000 1.000000 0.000000
vn 0.000000 1.000000 0.000000
vn 0.000000 1.000000 0.000000
vn 0.000000 0.000000 -1.000000
vn 0.000000 0.000000 -1.000000
vn 0.000000 0.000000 -1.000000
vn 0.000000 0.000000 -1.000000
f 60/134/133 61/126/134 63/125/135 62/124/136
f 64/129/137 65/128/138 66/132/139 67/130/140
f 58/119/141 59/120/142 63/121/143 61/122/144
f 60/123/145 62/133/146 66/127/147 65/131/148
v 44.684312 1.122379 25.189574
v 43.767228 1.122379 25.189574
v 43.767228 0.122379 25.189574
v 44.684312 0.222369 10.283016
v 44.684312 0.122379 10.383006
v 43.867219 0.222369 10.283016
v 43.767228 0.122379 10.383006
v 44.684312 1.122379 10.383006
v 44.684312 1.022389 10.283016
v 43.867219 1.022389 10.283016
v 43.767228 1.122379 10.383006
vt 0.807097 0.626735
vt 0.737433 0.626714
vt 0.754395 0.563005
vt 0.806735 0.561564
vt 0.806540 0.647973
vt 0.747865 0.646127
vt 0.728242 0.569209
vt 0.806486 0.552506
vt 0.814930 0.250239
vt 0.830906 0.250239
vt 0.830906 0.508181
vt 0.814930 0.508181
vt 0.794297 0.508181
vt 0.794297 0.250239
vt 0.811718 0.250239
vt 0.811718 0.508181
vt 0.807052 0.575663
vt 0.754889 0.575710
vt 0.754936 0.626782
vt 0.806825 0.638925
vt 0.747739 0.554123
vt 0.737299 0.575576
vt 0.728410 0.633129
vt 0.754546 0.637281
vn -0.000000 -0.707106 -0.707107
vn -0.000000 -0.707106 -0.707107
vn -0.000000 -0.707106 -0.707107
vn -0.000000 -0.707106 -0.707107
vn -0.707104 0.000000 -0.707110
vn -0.707104 0.000000 -0.707110
vn -0.707104 0.000000 -0.707110
vn -0.707104 0.000000 -0.707110
vn 0.000000 0.707106 -0.707107
vn 0.000000 0.707106 -0.707107
vn 0.000000 0.707106 -0.707107
vn 0.000000 0.707106 -0.707107
vn -0.000000 0.000000 -1.000000
vn -0.000000 0.000000 -1.000000
vn -0.000000 0.000000 -1.000000
vn -0.000000 0.000000 -1.000000
vn 0.000000 1.000000 0.000000
vn 0.000000 1.000000 0.000000
vn 0.000000 1.000000 0.000000
vn 0.000000 1.000000 0.000000
vn -1.000000 0.000000 0.000000
vn -1.000000 0.000000 0.000000
vn -1.000000 0.000000 0.000000
vn -1.000000 0.000000 0.000000
f 71/154/149 72/139/150 74/140/151 73/158/152
f 73/136/153 74/157/154 78/141/155 77/156/156
f 75/142/157 76/138/158 77/137/159 78/155/160
f 71/135/161 73/153/162 77/152/163 76/151/164
f 75/143/165 78/144/166 69/145/167 68/146/168
f 69/147/169 78/148/170 74/149/171 70/150/172
v 45.626498 1.122379 25.189574
v 44.684312 1.122379 25.189574
v 44.684312 0.122379 25.189574
v 45.626498 0.222369 9.379305
v 45.626498 0.122379 9.479295
v 44.784303 0.222369 9.379305
v 44.684312 0.122379 9.479295
v 45.626498 1.122379 9.479295
v 45.626498 1.022389 9.379305
v 44.784303 1.022389 9.379305
v 44.684312 1.122379 9.479295
vt 0.100968 0.569301
vt 0.035400 0.572470
vt 0.052957 0.509226
vt 0.103813 0.507872
vt 0.099419 0.594439
vt 0.042571 0.592692
vt 0.026723 0.518244
vt 0.103586 0.499334
vt 0.930644 0.352760
vt 0.948103 0.352760
vt 0.948103 0.643879
vt 0.930643 0.643879
vt 0.026894 0.578521
vt 0.099681 0.585907
vt 0.966633 0.352760
vt 0.966633 0.643879
vt 0.100920 0.521163
vt 0.035264 0.524247
vt 0.050244 0.521213
vt 0.048866 0.584345
vt 0.050291 0.569352
vt 0.046692 0.500848
vn -0.000000 -0.707106 -0.707107
vn -0.000000 -0.707106 -0.707107
vn -0.000000 -0.707106 -0.707107
vn -0.000000 -0.707106 -0.707107
vn -0.707104 0.000000 -0.707110
vn -0.707104 0.000000 -0.707110
vn -0.707104 0.000000 -0.707110
vn -0.707104 0.000000 -0.707110
vn 0.000000 0.707106 -0.707107
vn 0.000000 0.707106 -0.707107
vn 0.000000 0.707106 -0.707107
vn 0.000000 0.707106 -0.707107
vn -0.000000 0.000000 -1.000000
vn -0.000000 0.000000 -1.000000
vn -0.000000 0.000000 -1.000000
vn -0.000000 0.000000 -1.000000
vn 0.000000 1.000000 0.000000
vn 0.000000 1.000000 0.000000
vn 0.000000 1.000000 0.000000
vn 0.000000 1.000000 0.000000
vn -1.000000 0.000000 0.000000
vn -1.000000 0.000000 0.000000
vn -1.000000 0.000000 0.000000
vn -1.000000 0.000000 0.000000
f 82/172/173 83/163/174 85/164/175 84/178/176
f 84/160/177 85/171/178 89/165/179 88/176/180
f 86/166/181 87/162/182 88/161/183 89/180/184
f 82/159/185 84/179/186 88/177/187 87/175/188
f 86/167/189 89/168/190 80/169/191 79/170/192
f 80/169/193 89/168/194 85/173/195 81/174/196
v 50.032883 1.122379 25.189575
v 45.626498 1.122379 25.189575
v 50.032883 0.122379 25.189575
v 45.626498 0.122379 25.189575
v 50.032883 0.222369 8.274770
v 50.032883 0.122379 8.374760
v 45.726489 0.222369 8.274770
v 45.626498 0.122379 8.374760
v 50.032883 1.122379 8.374760
v 50.032883 1.022389 8.274770
v 45.726489 1.022389 8.274770
v 45.626498 1.122379 8.374760
vt 0.967016 0.313433
vt 0.965285 0.311702
vt 0.965285 0.020462
vt 0.982605 0.020462
vt 0.982605 0.311702
vt 0.980873 0.313433
vt 0.145729 0.508280
vt 0.404214 0.520781
vt 0.390860 0.578206
vt 0.145566 0.566103
vt 0.145762 0.500244
vt 0.396202 0.501020
vt 0.412709 0.571586
vt 0.145990 0.586888
vt 0.412154 0.515050
vt 0.888964 0.311702
vt 0.888964 0.020462
vt 0.145561 0.520572
vt 0.396569 0.586231
vt 0.390649 0.520545
vt 0.871644 0.311702
vt 0.871644 0.020462
vt 0.145979 0.578847
vt 0.404658 0.566012
vt 0.390654 0.566076
vt 0.390494 0.509038
vn 1.000000 -0.000000 0.000000
vn 1.000000 -0.000000 0.000000
vn 1.000000 -0.000000 0.000000
vn 1.000000 -0.000000 0.000000
vn 1.000000 -0.000000 0.000000
vn 1.000000 -0.000000 0.000000
vn -0.000000 -0.707106 -0.707107
vn -0.000000 -0.707106 -0.707107
vn -0.000000 -0.707106 -0.707107
vn -0.000000 -0.707106 -0.707107
vn -0.707104 0.000000 -0.707110
vn -0.707104 0.000000 -0.707110
vn -0.707104 0.000000 -0.707110
vn -0.707104 0.000000 -0.707110
vn 0.000000 0.707106 -0.707107
vn 0.000000 0.707106 -0.707107
vn 0.000000 0.707106 -0.707107
vn 0.000000 0.707106 -0.707107
vn -0.000000 0.000000 -1.000000
vn -0.000000 0.000000 -1.000000
vn -0.000000 0.000000 -1.000000
vn -0.000000 0.000000 -1.000000
vn 0.000000 1.000000 0.000000
vn 0.000000 1.000000 0.000000
vn 0.000000 1.000000 0.000000
vn 0.000000 1.000000 0.000000
vn -1.000000 0.000000 0.000000
vn -1.000000 0.000000 0.000000
vn -1.000000 0.000000 0.000000
vn -1.000000 0.000000 0.000000
f 99/181/197 98/182/198 90/183/199 92/184/200 95/185/201 94/186/202
f 94/187/203 95/191/204 97/192/205 96/206/206
f 96/188/207 97/195/208 101/193/209 100/204/210
f 98/194/211 99/203/212 100/189/213 101/199/214
f 94/198/215 96/200/216 100/205/217 99/190/218
f 98/182/219 101/196/220 91/197/221 90/183/222
f 91/197/223 101/196/224 97/201/225 93/202/226
