# This file uses centimeters as units for non-parametric coordinates.

v -49.978355 0.122379 25.189575
v -46.032345 0.122379 25.189575
v -49.978355 1.122379 25.189575
v -46.032345 1.122379 25.189575
v -49.978355 1.022389 8.285964
v -49.978355 1.122379 8.385954
v -46.132336 1.022389 8.285964
v -46.032345 1.122379 8.385954
v -49.978355 0.122379 8.385954
v -49.978355 0.222369 8.285964
v -46.132336 0.222369 8.285964
v -46.032345 0.122379 8.385954
v -1.000000 1.122379 25.189575
v -29.549118 1.122379 25.189575
v -29.549118 0.122379 25.189575
v -1.000000 0.222369 8.285964
v -1.000000 0.122379 8.385954
v -29.449127 0.222369 8.285964
v -29.549118 0.122379 8.385954
v -1.000000 1.122379 8.385954
v -1.000000 1.022389 8.285964
v -29.449127 1.022389 8.285964
v -29.549118 1.122379 8.385954
v 35.000000 1.122379 25.189575
v 17.900009 1.122379 25.189575
v 17.900009 0.122379 25.189575
v 35.000000 0.222369 8.285964
v 35.000000 0.122379 8.385954
v 18.000000 0.222369 8.285964
v 17.900009 0.122379 8.385954
v 35.000000 1.122379 8.385954
v 35.000000 1.022389 8.285964
v 18.000000 1.022389 8.285964
v 17.900009 1.122379 8.385954
v 16.992125 0.122379 25.189575
v -1.000001 1.122379 25.189575
v 16.992125 1.122379 25.189575
v -1.000001 1.022389 8.285964
v -1.000001 1.122379 8.385954
v 16.892134 1.022389 8.285964
v 16.992125 1.122379 8.385954
v -1.000001 0.122379 8.385954
v -1.000001 0.222369 8.285964
v 16.892134 0.222369 8.285964
v 16.992125 0.122379 8.385954
v 45.099991 0.122379 25.189575
v 35.000000 1.122379 25.189575
v 45.099991 1.122379 25.189575
v 35.000000 1.022389 8.285964
v 35.000000 1.122379 8.385954
v 45.000000 1.022389 8.285964
v 45.099991 1.122379 8.385954
v 35.000000 0.122379 8.385954
v 35.000000 0.222369 8.285964
v 45.000000 0.222369 8.285964
v 45.099991 0.122379 8.385954
v 50.000000 1.122379 25.189575
v 45.900009 1.122379 25.189575
v 50.000000 0.122379 25.189575
v 45.900009 0.122379 25.189575
v 50.000000 0.222369 8.285964
v 50.000000 0.122379 8.385954
v 46.000000 0.222369 8.285964
v 45.900009 0.122379 8.385954
v 50.000000 1.122379 8.385954
v 50.000000 1.022389 8.285964
v 46.000000 1.022389 8.285964
v 45.900009 1.122379 8.385954
vt 0.179459 0.321606
vt 0.177681 0.319828
vt 0.177681 0.021006
vt 0.195464 0.021006
vt 0.195464 0.319828
vt 0.193686 0.321606
vt 0.055561 0.680269
vt 0.125733 0.680269
vt 0.125733 0.979092
vt 0.055561 0.979092
vt 0.055561 0.980870
vt 0.123955 0.980870
vt 0.719778 0.629479
vt 0.719778 0.561084
vt 0.734005 0.561084
vt 0.734005 0.629479
vt 0.718000 0.559305
vt 0.735783 0.559305
vt 0.735783 0.629479
vt 0.154426 0.319828
vt 0.154426 0.021006
vt 0.172209 0.021006
vt 0.172209 0.319828
vt 0.658460 0.126405
vt 0.658460 0.632323
vt 0.644233 0.632323
vt 0.644233 0.126405
vt 0.660238 0.126405
vt 0.660238 0.634101
vt 0.642455 0.634101
vt 0.642455 0.126405
vt 0.635085 0.978590
vt 0.127389 0.978483
vt 0.127453 0.679660
vt 0.635148 0.679767
vt 0.148954 0.021006
vt 0.148954 0.319828
vt 0.131171 0.319828
vt 0.131171 0.021006
vt 0.707881 0.328563
vt 0.707881 0.630878
vt 0.693654 0.630878
vt 0.693654 0.328563
vt 0.709659 0.328563
vt 0.709659 0.632656
vt 0.691876 0.632656
vt 0.691876 0.328563
vt 0.363922 0.644480
vt 0.059829 0.644086
vt 0.060216 0.345263
vt 0.364309 0.345658
vt 0.125698 0.021006
vt 0.125698 0.319828
vt 0.107915 0.319828
vt 0.107915 0.021006
vt 0.636215 0.679711
vt 0.956173 0.679512
vt 0.956358 0.978335
vt 0.636400 0.978533
vt 0.636401 0.980312
vt 0.954581 0.980114
vt 0.667454 0.634222
vt 0.667454 0.316042
vt 0.681680 0.316042
vt 0.681680 0.634222
vt 0.665675 0.314264
vt 0.683459 0.314264
vt 0.683459 0.634222
vt 0.084660 0.319828
vt 0.084660 0.021006
vt 0.102443 0.021006
vt 0.102443 0.319828
vt 0.369891 0.345499
vt 0.549501 0.345499
vt 0.549501 0.644322
vt 0.369891 0.644322
vt 0.369891 0.646100
vt 0.547723 0.646100
vt 0.745463 0.633963
vt 0.745463 0.456131
vt 0.759690 0.456131
vt 0.759690 0.633963
vt 0.743685 0.454353
vt 0.761468 0.454353
vt 0.761468 0.633963
vt 0.061405 0.319828
vt 0.061405 0.021006
vt 0.079188 0.021006
vt 0.079188 0.319828
vt 0.216941 0.021006
vt 0.218719 0.022784
vt 0.218719 0.321606
vt 0.200936 0.321606
vt 0.200936 0.022784
vt 0.202714 0.021006
vt 0.736435 0.469780
vt 0.736435 0.540913
vt 0.722208 0.540913
vt 0.722208 0.469780
vt 0.738213 0.469780
vt 0.738213 0.542692
vt 0.720430 0.542692
vt 0.720430 0.469780
vt 0.588608 0.644569
vt 0.557597 0.644360
vt 0.557597 0.345538
vt 0.588608 0.345548
vt 0.251261 0.016118
vt 0.251261 0.314941
vt 0.233478 0.314941
vt 0.233478 0.016118
vn -1.000000 -0.000001 0.000000
vn -1.000000 -0.000001 0.000000
vn -1.000000 -0.000001 0.000000
vn -1.000000 -0.000001 0.000000
vn -1.000000 -0.000001 0.000000
vn -1.000000 -0.000001 0.000000
vn 0.000000 0.707106 -0.707107
vn 0.000000 0.707106 -0.707107
vn 0.000000 0.707106 -0.707107
vn 0.000000 0.707106 -0.707107
vn 0.707106 0.000000 -0.707108
vn 0.707106 0.000000 -0.707108
vn 0.707106 0.000000 -0.707108
vn 0.707106 0.000000 -0.707108
vn 0.000000 -0.707106 -0.707107
vn 0.000000 -0.707106 -0.707107
vn 0.000000 -0.707106 -0.707107
vn 0.000000 -0.707106 -0.707107
vn 0.000000 1.000000 0.000000
vn 0.000000 1.000000 0.000000
vn 0.000000 1.000000 0.000000
vn 0.000000 1.000000 0.000000
vn 0.000000 0.000000 -1.000000
vn 0.000000 0.000000 -1.000000
vn 0.000000 0.000000 -1.000000
vn 0.000000 0.000000 -1.000000
vn 1.000000 0.000000 0.000000
vn 1.000000 0.000000 0.000000
vn 1.000000 0.000000 0.000000
vn 1.000000 0.000000 0.000000
vn 0.000000 -0.707106 -0.707107
vn 0.000000 -0.707106 -0.707107
vn 0.000000 -0.707106 -0.707107
vn 0.000000 -0.707106 -0.707107
vn -0.707106 0.000000 -0.707108
vn -0.707106 0.000000 -0.707108
vn -0.707106 0.000000 -0.707108
vn -0.707106 0.000000 -0.707108
vn 0.000000 0.707106 -0.707107
vn 0.000000 0.707106 -0.707107
vn 0.000000 0.707106 -0.707107
vn 0.000000 0.707106 -0.707107
vn 0.000000 0.000000 -1.000000
vn 0.000000 0.000000 -1.000000
vn 0.000000 0.000000 -1.000000
vn 0.000000 0.000000 -1.000000
vn 0.000000 1.000000 0.000000
vn 0.000000 1.000000 0.000000
vn 0.000000 1.000000 0.000000
vn 0.000000 1.000000 0.000000
vn -1.000000 0.000000 0.000000
vn -1.000000 0.000000 0.000000
vn -1.000000 0.000000 0.000000
vn -1.000000 0.000000 0.000000
vn 0.000000 -0.707106 -0.707107
vn 0.000000 -0.707106 -0.707107
vn 0.000000 -0.707106 -0.707107
vn 0.000000 -0.707106 -0.707107
vn -0.707106 0.000000 -0.707108
vn -0.707106 0.000000 -0.707108
vn -0.707106 0.000000 -0.707108
vn -0.707106 0.000000 -0.707108
vn 0.000000 0.707107 -0.707107
vn 0.000000 0.707107 -0.707107
vn 0.000000 0.707107 -0.707107
vn 0.000000 0.707107 -0.707107
vn 0.000000 0.000000 -1.000000
vn 0.000000 0.000000 -1.000000
vn 0.000000 0.000000 -1.000000
vn 0.000000 0.000000 -1.000000
vn 0.000000 1.000000 0.000000
vn 0.000000 1.000000 0.000000
vn 0.000000 1.000000 0.000000
vn 0.000000 1.000000 0.000000
vn -1.000000 0.000000 0.000000
vn -1.000000 0.000000 0.000000
vn -1.000000 0.000000 0.000000
vn -1.000000 0.000000 0.000000
vn 0.000000 0.707106 -0.707107
vn 0.000000 0.707106 -0.707107
vn 0.000000 0.707106 -0.707107
vn 0.000000 0.707106 -0.707107
vn 0.707106 0.000000 -0.707108
vn 0.707106 0.000000 -0.707108
vn 0.707106 0.000000 -0.707108
vn 0.707106 0.000000 -0.707108
vn 0.000000 -0.707106 -0.707107
vn 0.000000 -0.707106 -0.707107
vn 0.000000 -0.707106 -0.707107
vn 0.000000 -0.707106 -0.707107
vn 0.000000 1.000000 0.000000
vn 0.000000 1.000000 0.000000
vn 0.000000 1.000000 0.000000
vn 0.000000 1.000000 0.000000
vn 0.000000 0.000000 -1.000000
vn 0.000000 0.000000 -1.000000
vn 0.000000 0.000000 -1.000000
vn 0.000000 0.000000 -1.000000
vn 1.000000 0.000000 0.000000
vn 1.000000 0.000000 0.000000
vn 1.000000 0.000000 0.000000
vn 1.000000 0.000000 0.000000
vn 0.000000 0.707106 -0.707107
vn 0.000000 0.707106 -0.707107
vn 0.000000 0.707106 -0.707107
vn 0.000000 0.707106 -0.707107
vn 0.707106 0.000000 -0.707108
vn 0.707106 0.000000 -0.707108
vn 0.707106 0.000000 -0.707108
vn 0.707106 0.000000 -0.707108
vn 0.000000 -0.707106 -0.707107
vn 0.000000 -0.707106 -0.707107
vn 0.000000 -0.707106 -0.707107
vn 0.000000 -0.707106 -0.707107
vn 0.000000 1.000000 0.000000
vn 0.000000 1.000000 0.000000
vn 0.000000 1.000000 0.000000
vn 0.000000 1.000000 0.000000
vn 0.000000 0.000000 -1.000000
vn 0.000000 0.000000 -1.000000
vn 0.000000 0.000000 -1.000000
vn 0.000000 0.000000 -1.000000
vn 1.000000 0.000000 0.000000
vn 1.000000 0.000000 0.000000
vn 1.000000 0.000000 0.000000
vn 1.000000 0.000000 0.000000
vn 1.000000 -0.000001 0.000000
vn 1.000000 -0.000001 0.000000
vn 1.000000 -0.000001 0.000000
vn 1.000000 -0.000001 0.000000
vn 1.000000 -0.000001 0.000000
vn 1.000000 -0.000001 0.000000
vn 0.000000 -0.707106 -0.707107
vn 0.000000 -0.707106 -0.707107
vn 0.000000 -0.707107 -0.707107
vn 0.000000 -0.707106 -0.707107
vn -0.707106 0.000000 -0.707108
vn -0.707106 0.000000 -0.707108
vn -0.707106 0.000000 -0.707108
vn -0.707106 0.000000 -0.707108
vn 0.000000 0.707107 -0.707107
vn 0.000000 0.707107 -0.707107
vn 0.000000 0.707107 -0.707107
vn 0.000000 0.707107 -0.707107
vn 0.000000 0.000000 -1.000000
vn 0.000000 0.000000 -1.000000
vn 0.000000 0.000000 -1.000000
vn 0.000000 0.000000 -1.000000
vn 0.000000 1.000000 0.000000
vn 0.000000 1.000000 0.000000
vn 0.000000 1.000000 0.000000
vn 0.000000 1.000000 0.000000
vn -1.000000 0.000000 0.000000
vn -1.000000 0.000000 0.000000
vn -1.000000 0.000000 0.000000
vn -1.000000 0.000000 0.000000
f 10/1/1 9/2/2 1/3/3 3/4/4 6/5/5 5/6/6
f 5/11/7 6/10/8 8/9/9 7/12/10
f 7/14/11 8/17/12 12/18/13 11/15/14
f 9/19/15 10/16/16 11/15/17 12/18/18
f 3/7/19 4/8/20 8/9/21 6/10/22
f 5/13/23 7/14/24 11/15/25 10/16/26
f 2/20/27 12/21/28 8/22/29 4/23/30
f 16/24/31 17/28/32 19/29/33 18/25/34
f 18/25/35 19/29/36 23/30/37 22/26/38
f 20/31/39 21/27/40 22/26/41 23/30/42
f 16/24/43 18/25/44 22/26/45 21/27/46
f 20/32/47 23/33/48 14/34/49 13/35/50
f 14/36/51 23/37/52 19/38/53 15/39/54
f 27/40/55 28/44/56 30/45/57 29/41/58
f 29/41/59 30/45/60 34/46/61 33/42/62
f 31/47/63 32/43/64 33/42/65 34/46/66
f 27/40/67 29/41/68 33/42/69 32/43/70
f 31/48/71 34/49/72 25/50/73 24/51/74
f 25/52/75 34/53/76 30/54/77 26/55/78
f 38/60/79 39/59/80 41/58/81 40/61/82
f 40/63/83 41/66/84 45/67/85 44/64/86
f 42/68/87 43/65/88 44/64/89 45/67/90
f 36/56/91 37/57/92 41/58/93 39/59/94
f 38/62/95 40/63/96 44/64/97 43/65/98
f 35/69/99 45/70/100 41/71/101 37/72/102
f 49/77/103 50/76/104 52/75/105 51/78/106
f 51/80/107 52/83/108 56/84/109 55/81/110
f 53/85/111 54/82/112 55/81/113 56/84/114
f 47/73/115 48/74/116 52/75/117 50/76/118
f 49/79/119 51/80/120 55/81/121 54/82/122
f 46/86/123 56/87/124 52/88/125 48/89/126
f 66/90/127 65/91/128 57/92/129 59/93/130 62/94/131 61/95/132
f 61/96/133 62/100/134 64/101/135 63/97/136
f 63/97/137 64/101/138 68/102/139 67/98/140
f 65/103/141 66/99/142 67/98/143 68/102/144
f 61/96/145 63/97/146 67/98/147 66/99/148
f 65/104/149 68/105/150 58/106/151 57/107/152
f 58/108/153 68/109/154 64/110/155 60/111/156
